<svg xmlns="http://www.w3.org/2000/svg" width="1600" height="1000" viewBox="0 0 1600 1000">
<defs>
  <marker id="arrow" markerWidth="8" markerHeight="8" refX="7" refY="4" orient="auto">
    <path d="M0,0 L8,4 L0,8 Z" fill="#64748B"/>
  </marker>
</defs>
<rect width="1600" height="1000" fill="#FFFFFF"/>
<rect x="20" y="18" width="1560" height="66" rx="12" fill="#0F172A"/><text x="48" y="47" text-anchor="start" font-family="Segoe UI,Arial,sans-serif" font-size="23" font-weight="750" fill="#FFFFFF">FINSKALP PLATFORM ARCHITECTURE v3.0</text><text x="48" y="69" text-anchor="start" font-family="Segoe UI,Arial,sans-serif" font-size="12" font-weight="500" fill="#CBD5E1">Платформа финансовых расследований, AML, Blockchain Intelligence и OSINT</text><text x="1552" y="49" text-anchor="end" font-family="Segoe UI,Arial,sans-serif" font-size="11" font-weight="700" fill="#93C5FD">CLIENT ARCHITECTURE BLUEPRINT</text><text x="1552" y="68" text-anchor="end" font-family="Segoe UI,Arial,sans-serif" font-size="10" font-weight="500" fill="#CBD5E1">Confidential · One-page reference architecture</text><rect x="20" y="100" width="1560" height="110" rx="10" fill="#F8FAFC" stroke="#CBD5E1" stroke-width="1"/><text x="36" y="123" text-anchor="start" font-family="Segoe UI,Arial,sans-serif" font-size="12" font-weight="700" fill="#334155">АНАЛИТИЧЕСКОЕ РАБОЧЕЕ ПРОСТРАНСТВО</text><text x="1564" y="123" text-anchor="end" font-family="Segoe UI,Arial,sans-serif" font-size="10" font-weight="500" fill="#64748B">Analyst Workspace</text><rect x="38" y="138" width="178" height="56" rx="8" fill="#D1FAE5" stroke="#059669" stroke-width="2"/><rect x="38" y="138" width="6" height="56" rx="3" fill="#059669"/><text x="130.0" y="157" text-anchor="middle" font-family="Segoe UI,Arial,sans-serif" font-size="12" font-weight="700" fill="#064E3B">Dashboard и KPI</text><text x="130.0" y="174" text-anchor="middle" font-family="Segoe UI,Arial,sans-serif" font-size="9.5" font-weight="500" fill="#064E3B">Overview</text><rect x="230" y="138" width="178" height="56" rx="8" fill="#D1FAE5" stroke="#059669" stroke-width="2"/><rect x="230" y="138" width="6" height="56" rx="3" fill="#059669"/><text x="322.0" y="157" text-anchor="middle" font-family="Segoe UI,Arial,sans-serif" font-size="12" font-weight="700" fill="#064E3B">Расследования</text><text x="322.0" y="174" text-anchor="middle" font-family="Segoe UI,Arial,sans-serif" font-size="9.5" font-weight="500" fill="#064E3B">Cases</text><rect x="422" y="138" width="178" height="56" rx="8" fill="#D1FAE5" stroke="#059669" stroke-width="2"/><rect x="422" y="138" width="6" height="56" rx="3" fill="#059669"/><text x="514.0" y="157" text-anchor="middle" font-family="Segoe UI,Arial,sans-serif" font-size="12" font-weight="700" fill="#064E3B">Граф связей</text><text x="514.0" y="174" text-anchor="middle" font-family="Segoe UI,Arial,sans-serif" font-size="9.5" font-weight="500" fill="#064E3B">Knowledge Graph</text><rect x="614" y="138" width="178" height="56" rx="8" fill="#D1FAE5" stroke="#059669" stroke-width="2"/><rect x="614" y="138" width="6" height="56" rx="3" fill="#059669"/><text x="706.0" y="157" text-anchor="middle" font-family="Segoe UI,Arial,sans-serif" font-size="12" font-weight="700" fill="#064E3B">Таймлайн</text><text x="706.0" y="174" text-anchor="middle" font-family="Segoe UI,Arial,sans-serif" font-size="9.5" font-weight="500" fill="#064E3B">Timeline</text><rect x="806" y="138" width="178" height="56" rx="8" fill="#FEE2E2" stroke="#EF4444" stroke-width="2"/><rect x="806" y="138" width="6" height="56" rx="3" fill="#EF4444"/><text x="898.0" y="157" text-anchor="middle" font-family="Segoe UI,Arial,sans-serif" font-size="12" font-weight="700" fill="#7F1D1D">Доказательства</text><text x="898.0" y="174" text-anchor="middle" font-family="Segoe UI,Arial,sans-serif" font-size="9.5" font-weight="500" fill="#7F1D1D">Evidence</text><rect x="998" y="138" width="178" height="56" rx="8" fill="#D1FAE5" stroke="#059669" stroke-width="2"/><rect x="998" y="138" width="6" height="56" rx="3" fill="#059669"/><text x="1090.0" y="157" text-anchor="middle" font-family="Segoe UI,Arial,sans-serif" font-size="12" font-weight="700" fill="#064E3B">Отчёты</text><text x="1090.0" y="174" text-anchor="middle" font-family="Segoe UI,Arial,sans-serif" font-size="9.5" font-weight="500" fill="#064E3B">Reports</text><rect x="1190" y="138" width="178" height="56" rx="8" fill="#FEE2E2" stroke="#EF4444" stroke-width="2"/><rect x="1190" y="138" width="6" height="56" rx="3" fill="#EF4444"/><text x="1282.0" y="157" text-anchor="middle" font-family="Segoe UI,Arial,sans-serif" font-size="12" font-weight="700" fill="#7F1D1D">AI Ассистент</text><text x="1282.0" y="174" text-anchor="middle" font-family="Segoe UI,Arial,sans-serif" font-size="9.5" font-weight="500" fill="#7F1D1D">Explainable AI</text><rect x="1382" y="138" width="178" height="56" rx="8" fill="#D1FAE5" stroke="#059669" stroke-width="2"/><rect x="1382" y="138" width="6" height="56" rx="3" fill="#059669"/><text x="1474.0" y="157" text-anchor="middle" font-family="Segoe UI,Arial,sans-serif" font-size="12" font-weight="700" fill="#064E3B">Уведомления</text><text x="1474.0" y="174" text-anchor="middle" font-family="Segoe UI,Arial,sans-serif" font-size="9.5" font-weight="500" fill="#064E3B">Alerts</text><rect x="20" y="224" width="1560" height="78" rx="10" fill="#F8FAFC" stroke="#CBD5E1" stroke-width="1"/><text x="36" y="247" text-anchor="start" font-family="Segoe UI,Arial,sans-serif" font-size="12" font-weight="700" fill="#334155">API GATEWAY &amp; SECURITY LAYER</text><text x="1564" y="247" text-anchor="end" font-family="Segoe UI,Arial,sans-serif" font-size="10" font-weight="500" fill="#64748B">Единая точка входа</text><rect x="38" y="253" width="292" height="39" rx="8" fill="#FEF3C7" stroke="#D97706" stroke-width="2"/><rect x="38" y="253" width="6" height="39" rx="3" fill="#D97706"/><text x="187.0" y="272" text-anchor="middle" font-family="Segoe UI,Arial,sans-serif" font-size="11" font-weight="700" fill="#78350F">Аутентификация</text><text x="187.0" y="289" text-anchor="middle" font-family="Segoe UI,Arial,sans-serif" font-size="9.5" font-weight="500" fill="#78350F">OAuth2 / OIDC</text><rect x="346" y="253" width="292" height="39" rx="8" fill="#D1FAE5" stroke="#059669" stroke-width="2"/><rect x="346" y="253" width="6" height="39" rx="3" fill="#059669"/><text x="495.0" y="272" text-anchor="middle" font-family="Segoe UI,Arial,sans-serif" font-size="11" font-weight="700" fill="#064E3B">Авторизация</text><text x="495.0" y="289" text-anchor="middle" font-family="Segoe UI,Arial,sans-serif" font-size="9.5" font-weight="500" fill="#064E3B">RBAC / ABAC</text><rect x="654" y="253" width="292" height="39" rx="8" fill="#D1FAE5" stroke="#059669" stroke-width="2"/><rect x="654" y="253" width="6" height="39" rx="3" fill="#059669"/><text x="803.0" y="272" text-anchor="middle" font-family="Segoe UI,Arial,sans-serif" font-size="11" font-weight="700" fill="#064E3B">Rate Limiting</text><text x="803.0" y="289" text-anchor="middle" font-family="Segoe UI,Arial,sans-serif" font-size="9.5" font-weight="500" fill="#064E3B">Квоты и защита</text><rect x="962" y="253" width="292" height="39" rx="8" fill="#D1FAE5" stroke="#059669" stroke-width="2"/><rect x="962" y="253" width="6" height="39" rx="3" fill="#059669"/><text x="1111.0" y="272" text-anchor="middle" font-family="Segoe UI,Arial,sans-serif" font-size="11" font-weight="700" fill="#064E3B">Шифрование</text><text x="1111.0" y="289" text-anchor="middle" font-family="Segoe UI,Arial,sans-serif" font-size="9.5" font-weight="500" fill="#064E3B">TLS / mTLS</text><rect x="1270" y="253" width="292" height="39" rx="8" fill="#FEE2E2" stroke="#EF4444" stroke-width="2"/><rect x="1270" y="253" width="6" height="39" rx="3" fill="#EF4444"/><text x="1419.0" y="272" text-anchor="middle" font-family="Segoe UI,Arial,sans-serif" font-size="11" font-weight="700" fill="#7F1D1D">Аудит запросов</text><text x="1419.0" y="289" text-anchor="middle" font-family="Segoe UI,Arial,sans-serif" font-size="9.5" font-weight="500" fill="#7F1D1D">Полный журнал</text><path d="M800 210 L800 224" fill="none" stroke="#64748B" stroke-width="1.6" marker-end="url(#arrow)"/><path d="M800 302 L800 334" fill="none" stroke="#64748B" stroke-width="1.6" marker-end="url(#arrow)"/><path d="M332 482 L372 482" fill="none" stroke="#64748B" stroke-width="1.6" marker-end="url(#arrow)"/><path d="M712 482 L740 482" fill="none" stroke="#64748B" stroke-width="1.6" marker-end="url(#arrow)"/><path d="M970 482 L992 482" fill="none" stroke="#64748B" stroke-width="1.6" marker-end="url(#arrow)"/><path d="M1248 482 L1268 482" fill="none" stroke="#64748B" stroke-width="1.6" marker-end="url(#arrow)"/><rect x="20" y="318" width="312" height="332" rx="10" fill="#F8FAFC" stroke="#CBD5E1" stroke-width="1"/><text x="36" y="341" text-anchor="start" font-family="Segoe UI,Arial,sans-serif" font-size="12" font-weight="700" fill="#334155">АНАЛИТИЧЕСКИЕ МОДУЛИ</text><text x="316" y="341" text-anchor="end" font-family="Segoe UI,Arial,sans-serif" font-size="10" font-weight="500" fill="#64748B">Capabilities</text><rect x="34" y="355" width="135" height="39" rx="8" fill="#D1FAE5" stroke="#059669" stroke-width="2"/><rect x="34" y="355" width="6" height="39" rx="3" fill="#059669"/><text x="104.5" y="374" text-anchor="middle" font-family="Segoe UI,Arial,sans-serif" font-size="9.5" font-weight="700" fill="#064E3B">Нелегальная деятельность</text><text x="104.5" y="391" text-anchor="middle" font-family="Segoe UI,Arial,sans-serif" font-size="9.5" font-weight="500" fill="#064E3B">Обменники / фирмы</text><rect x="179" y="355" width="135" height="39" rx="8" fill="#D1FAE5" stroke="#059669" stroke-width="2"/><rect x="179" y="355" width="6" height="39" rx="3" fill="#059669"/><text x="249.5" y="374" text-anchor="middle" font-family="Segoe UI,Arial,sans-serif" font-size="9.5" font-weight="700" fill="#064E3B">Криптооперации</text><text x="249.5" y="391" text-anchor="middle" font-family="Segoe UI,Arial,sans-serif" font-size="9.5" font-weight="500" fill="#064E3B">Незарегистрированные</text><rect x="34" y="402" width="135" height="39" rx="8" fill="#D1FAE5" stroke="#059669" stroke-width="2"/><rect x="34" y="402" width="6" height="39" rx="3" fill="#059669"/><text x="104.5" y="421" text-anchor="middle" font-family="Segoe UI,Arial,sans-serif" font-size="9.5" font-weight="700" fill="#064E3B">Кластеризация</text><text x="104.5" y="438" text-anchor="middle" font-family="Segoe UI,Arial,sans-serif" font-size="9.5" font-weight="500" fill="#064E3B">Криптокошельки</text><rect x="179" y="402" width="135" height="39" rx="8" fill="#D1FAE5" stroke="#059669" stroke-width="2"/><rect x="179" y="402" width="6" height="39" rx="3" fill="#059669"/><text x="249.5" y="421" text-anchor="middle" font-family="Segoe UI,Arial,sans-serif" font-size="9.5" font-weight="700" fill="#064E3B">Ретроспективный анализ</text><text x="249.5" y="438" text-anchor="middle" font-family="Segoe UI,Arial,sans-serif" font-size="9.5" font-weight="500" fill="#064E3B">Транзакции / события</text><rect x="34" y="449" width="135" height="39" rx="8" fill="#D1FAE5" stroke="#059669" stroke-width="2"/><rect x="34" y="449" width="6" height="39" rx="3" fill="#059669"/><text x="104.5" y="468" text-anchor="middle" font-family="Segoe UI,Arial,sans-serif" font-size="9.5" font-weight="700" fill="#064E3B">Связи и контрагенты</text><text x="104.5" y="485" text-anchor="middle" font-family="Segoe UI,Arial,sans-serif" font-size="9.5" font-weight="500" fill="#064E3B">Correlation</text><rect x="179" y="449" width="135" height="39" rx="8" fill="#D1FAE5" stroke="#059669" stroke-width="2"/><rect x="179" y="449" width="6" height="39" rx="3" fill="#059669"/><text x="249.5" y="468" text-anchor="middle" font-family="Segoe UI,Arial,sans-serif" font-size="9.5" font-weight="700" fill="#064E3B">Оценка риска</text><text x="249.5" y="485" text-anchor="middle" font-family="Segoe UI,Arial,sans-serif" font-size="9.5" font-weight="500" fill="#064E3B">Risk Scoring</text><rect x="34" y="496" width="135" height="39" rx="8" fill="#D1FAE5" stroke="#059669" stroke-width="2"/><rect x="34" y="496" width="6" height="39" rx="3" fill="#059669"/><text x="104.5" y="515" text-anchor="middle" font-family="Segoe UI,Arial,sans-serif" font-size="9.5" font-weight="700" fill="#064E3B">Entity Resolution</text><text x="104.5" y="532" text-anchor="middle" font-family="Segoe UI,Arial,sans-serif" font-size="9.5" font-weight="500" fill="#064E3B">Разрешение сущностей</text><rect x="179" y="496" width="135" height="39" rx="8" fill="#D1FAE5" stroke="#059669" stroke-width="2"/><rect x="179" y="496" width="6" height="39" rx="3" fill="#059669"/><text x="249.5" y="515" text-anchor="middle" font-family="Segoe UI,Arial,sans-serif" font-size="9.5" font-weight="700" fill="#064E3B">Case Management</text><text x="249.5" y="532" text-anchor="middle" font-family="Segoe UI,Arial,sans-serif" font-size="9.5" font-weight="500" fill="#064E3B">Управление делами</text><rect x="34" y="543" width="135" height="39" rx="8" fill="#D1FAE5" stroke="#059669" stroke-width="2"/><rect x="34" y="543" width="6" height="39" rx="3" fill="#059669"/><text x="104.5" y="562" text-anchor="middle" font-family="Segoe UI,Arial,sans-serif" font-size="9.5" font-weight="700" fill="#064E3B">Timeline Engine</text><text x="104.5" y="579" text-anchor="middle" font-family="Segoe UI,Arial,sans-serif" font-size="9.5" font-weight="500" fill="#064E3B">Построение таймлайнов</text><rect x="179" y="543" width="135" height="39" rx="8" fill="#FEE2E2" stroke="#EF4444" stroke-width="2"/><rect x="179" y="543" width="6" height="39" rx="3" fill="#EF4444"/><text x="249.5" y="562" text-anchor="middle" font-family="Segoe UI,Arial,sans-serif" font-size="9.5" font-weight="700" fill="#7F1D1D">Evidence Management</text><text x="249.5" y="579" text-anchor="middle" font-family="Segoe UI,Arial,sans-serif" font-size="9.5" font-weight="500" fill="#7F1D1D">Chain of Custody</text><rect x="34" y="590" width="135" height="39" rx="8" fill="#FEE2E2" stroke="#EF4444" stroke-width="2"/><rect x="34" y="590" width="6" height="39" rx="3" fill="#EF4444"/><text x="104.5" y="609" text-anchor="middle" font-family="Segoe UI,Arial,sans-serif" font-size="9.5" font-weight="700" fill="#7F1D1D">AI-анализ</text><text x="104.5" y="626" text-anchor="middle" font-family="Segoe UI,Arial,sans-serif" font-size="9.5" font-weight="500" fill="#7F1D1D">Объяснения</text><rect x="179" y="590" width="135" height="39" rx="8" fill="#D1FAE5" stroke="#059669" stroke-width="2"/><rect x="179" y="590" width="6" height="39" rx="3" fill="#059669"/><text x="249.5" y="609" text-anchor="middle" font-family="Segoe UI,Arial,sans-serif" font-size="9.5" font-weight="700" fill="#064E3B">Report Builder</text><text x="249.5" y="626" text-anchor="middle" font-family="Segoe UI,Arial,sans-serif" font-size="9.5" font-weight="500" fill="#064E3B">Конструктор отчётов</text><rect x="348" y="318" width="376" height="332" rx="10" fill="#F8FAFC" stroke="#CBD5E1" stroke-width="1"/><text x="364" y="341" text-anchor="start" font-family="Segoe UI,Arial,sans-serif" font-size="12" font-weight="700" fill="#334155">FUSION INTELLIGENCE CORE</text><text x="708" y="341" text-anchor="end" font-family="Segoe UI,Arial,sans-serif" font-size="10" font-weight="500" fill="#64748B">Investigation Core</text><ellipse cx="485" cy="480" rx="112" ry="92" fill="#064E3B" stroke="#059669" stroke-width="5"/><text x="485" y="457" text-anchor="middle" font-family="Segoe UI,Arial,sans-serif" font-size="20" font-weight="750" fill="#FFFFFF">FUSION</text><text x="485" y="481" text-anchor="middle" font-family="Segoe UI,Arial,sans-serif" font-size="18" font-weight="750" fill="#FFFFFF">INTELLIGENCE CORE</text><text x="485" y="510" text-anchor="middle" font-family="Segoe UI,Arial,sans-serif" font-size="10" font-weight="500" fill="#A7F3D0">Корреляция · Merge · Attribution</text><rect x="612" y="354" width="98" height="37" rx="8" fill="#D1FAE5" stroke="#059669" stroke-width="2"/><rect x="612" y="354" width="6" height="37" rx="3" fill="#059669"/><text x="664.0" y="373" text-anchor="middle" font-family="Segoe UI,Arial,sans-serif" font-size="8.8" font-weight="700" fill="#064E3B">Нормализация</text><rect x="612" y="400" width="98" height="37" rx="8" fill="#D1FAE5" stroke="#059669" stroke-width="2"/><rect x="612" y="400" width="6" height="37" rx="3" fill="#059669"/><text x="664.0" y="419" text-anchor="middle" font-family="Segoe UI,Arial,sans-serif" font-size="8.8" font-weight="700" fill="#064E3B">Entity Extraction</text><rect x="612" y="446" width="98" height="37" rx="8" fill="#D1FAE5" stroke="#059669" stroke-width="2"/><rect x="612" y="446" width="6" height="37" rx="3" fill="#059669"/><text x="664.0" y="465" text-anchor="middle" font-family="Segoe UI,Arial,sans-serif" font-size="8.8" font-weight="700" fill="#064E3B">Дедупликация</text><rect x="612" y="492" width="98" height="37" rx="8" fill="#D1FAE5" stroke="#059669" stroke-width="2"/><rect x="612" y="492" width="6" height="37" rx="3" fill="#059669"/><text x="664.0" y="511" text-anchor="middle" font-family="Segoe UI,Arial,sans-serif" font-size="8.8" font-weight="700" fill="#064E3B">Обогащение</text><rect x="612" y="538" width="98" height="37" rx="8" fill="#D1FAE5" stroke="#059669" stroke-width="2"/><rect x="612" y="538" width="6" height="37" rx="3" fill="#059669"/><text x="664.0" y="557" text-anchor="middle" font-family="Segoe UI,Arial,sans-serif" font-size="8.8" font-weight="700" fill="#064E3B">Достоверность</text><rect x="612" y="584" width="98" height="37" rx="8" fill="#D1FAE5" stroke="#059669" stroke-width="2"/><rect x="612" y="584" width="6" height="37" rx="3" fill="#059669"/><text x="664.0" y="603" text-anchor="middle" font-family="Segoe UI,Arial,sans-serif" font-size="8.8" font-weight="700" fill="#064E3B">Quality &amp; Confidence</text><rect x="740" y="318" width="230" height="332" rx="10" fill="#F8FAFC" stroke="#CBD5E1" stroke-width="1"/><text x="756" y="341" text-anchor="start" font-family="Segoe UI,Arial,sans-serif" font-size="12" font-weight="700" fill="#334155">КОННЕКТОРЫ И ВВОД ДАННЫХ</text><text x="954" y="341" text-anchor="end" font-family="Segoe UI,Arial,sans-serif" font-size="10" font-weight="500" fill="#64748B">Connectors</text><rect x="754" y="355" width="202" height="39" rx="8" fill="#FEF3C7" stroke="#D97706" stroke-width="2"/><rect x="754" y="355" width="6" height="39" rx="3" fill="#D97706"/><text x="858.0" y="374" text-anchor="middle" font-family="Segoe UI,Arial,sans-serif" font-size="10" font-weight="700" fill="#78350F">Банковские системы</text><text x="858.0" y="391" text-anchor="middle" font-family="Segoe UI,Arial,sans-serif" font-size="9.5" font-weight="500" fill="#78350F">SWIFT · Payments</text><rect x="754" y="402" width="202" height="39" rx="8" fill="#FEF3C7" stroke="#D97706" stroke-width="2"/><rect x="754" y="402" width="6" height="39" rx="3" fill="#D97706"/><text x="858.0" y="421" text-anchor="middle" font-family="Segoe UI,Arial,sans-serif" font-size="10" font-weight="700" fill="#78350F">KYT / KYC / KYB</text><text x="858.0" y="438" text-anchor="middle" font-family="Segoe UI,Arial,sans-serif" font-size="9.5" font-weight="500" fill="#78350F">External providers</text><rect x="754" y="449" width="202" height="39" rx="8" fill="#D1FAE5" stroke="#059669" stroke-width="2"/><rect x="754" y="449" width="6" height="39" rx="3" fill="#059669"/><text x="858.0" y="468" text-anchor="middle" font-family="Segoe UI,Arial,sans-serif" font-size="10" font-weight="700" fill="#064E3B">Мануальный ввод</text><text x="858.0" y="485" text-anchor="middle" font-family="Segoe UI,Arial,sans-serif" font-size="9.5" font-weight="500" fill="#064E3B">Data entry</text><rect x="754" y="496" width="202" height="39" rx="8" fill="#D1FAE5" stroke="#059669" stroke-width="2"/><rect x="754" y="496" width="6" height="39" rx="3" fill="#059669"/><text x="858.0" y="515" text-anchor="middle" font-family="Segoe UI,Arial,sans-serif" font-size="10" font-weight="700" fill="#064E3B">Blockchain Scanners</text><text x="858.0" y="532" text-anchor="middle" font-family="Segoe UI,Arial,sans-serif" font-size="9.5" font-weight="500" fill="#064E3B">BTC · ETH · TRON</text><rect x="754" y="543" width="202" height="39" rx="8" fill="#FEF3C7" stroke="#D97706" stroke-width="2"/><rect x="754" y="543" width="6" height="39" rx="3" fill="#D97706"/><text x="858.0" y="562" text-anchor="middle" font-family="Segoe UI,Arial,sans-serif" font-size="10" font-weight="700" fill="#78350F">Локальные системы</text><text x="858.0" y="579" text-anchor="middle" font-family="Segoe UI,Arial,sans-serif" font-size="9.5" font-weight="500" fill="#78350F">Integration API</text><rect x="754" y="590" width="202" height="39" rx="8" fill="#FEF3C7" stroke="#D97706" stroke-width="2"/><rect x="754" y="590" width="6" height="39" rx="3" fill="#D97706"/><text x="858.0" y="609" text-anchor="middle" font-family="Segoe UI,Arial,sans-serif" font-size="10" font-weight="700" fill="#78350F">Реестры и БД</text><text x="858.0" y="626" text-anchor="middle" font-family="Segoe UI,Arial,sans-serif" font-size="9.5" font-weight="500" fill="#78350F">Government / CRIF</text><rect x="992" y="318" width="256" height="332" rx="10" fill="#F8FAFC" stroke="#CBD5E1" stroke-width="1"/><text x="1008" y="341" text-anchor="start" font-family="Segoe UI,Arial,sans-serif" font-size="12" font-weight="700" fill="#334155">ВНЕШНИЕ ИСТОЧНИКИ</text><text x="1232" y="341" text-anchor="end" font-family="Segoe UI,Arial,sans-serif" font-size="10" font-weight="500" fill="#64748B">OSINT &amp; Data</text><rect x="1006" y="355" width="228" height="39" rx="8" fill="#D1FAE5" stroke="#059669" stroke-width="2"/><rect x="1006" y="355" width="6" height="39" rx="3" fill="#059669"/><text x="1123.0" y="374" text-anchor="middle" font-family="Segoe UI,Arial,sans-serif" font-size="10" font-weight="700" fill="#064E3B">Crypto Resources</text><text x="1123.0" y="391" text-anchor="middle" font-family="Segoe UI,Arial,sans-serif" font-size="9.5" font-weight="500" fill="#064E3B">Darknet · Forums</text><rect x="1006" y="402" width="228" height="39" rx="8" fill="#D1FAE5" stroke="#059669" stroke-width="2"/><rect x="1006" y="402" width="6" height="39" rx="3" fill="#059669"/><text x="1123.0" y="421" text-anchor="middle" font-family="Segoe UI,Arial,sans-serif" font-size="10" font-weight="700" fill="#064E3B">Social Intelligence</text><text x="1123.0" y="438" text-anchor="middle" font-family="Segoe UI,Arial,sans-serif" font-size="9.5" font-weight="500" fill="#064E3B">Telegram · X · Reddit</text><rect x="1006" y="449" width="228" height="39" rx="8" fill="#D1FAE5" stroke="#059669" stroke-width="2"/><rect x="1006" y="449" width="6" height="39" rx="3" fill="#059669"/><text x="1123.0" y="468" text-anchor="middle" font-family="Segoe UI,Arial,sans-serif" font-size="10" font-weight="700" fill="#064E3B">WHOIS / DNS / IP</text><text x="1123.0" y="485" text-anchor="middle" font-family="Segoe UI,Arial,sans-serif" font-size="9.5" font-weight="500" fill="#064E3B">ASN · ENS · CT</text><rect x="1006" y="496" width="228" height="39" rx="8" fill="#FEF3C7" stroke="#D97706" stroke-width="2"/><rect x="1006" y="496" width="6" height="39" rx="3" fill="#D97706"/><text x="1123.0" y="515" text-anchor="middle" font-family="Segoe UI,Arial,sans-serif" font-size="10" font-weight="700" fill="#78350F">Leak Intelligence</text><text x="1123.0" y="532" text-anchor="middle" font-family="Segoe UI,Arial,sans-serif" font-size="9.5" font-weight="500" fill="#78350F">HIBP · IntelligenceX</text><rect x="1006" y="543" width="228" height="39" rx="8" fill="#D1FAE5" stroke="#059669" stroke-width="2"/><rect x="1006" y="543" width="6" height="39" rx="3" fill="#059669"/><text x="1123.0" y="562" text-anchor="middle" font-family="Segoe UI,Arial,sans-serif" font-size="10" font-weight="700" fill="#064E3B">OSINT Tools</text><text x="1123.0" y="579" text-anchor="middle" font-family="Segoe UI,Arial,sans-serif" font-size="9.5" font-weight="500" fill="#064E3B">Sherlock · Maltego</text><rect x="1006" y="590" width="228" height="39" rx="8" fill="#FEF3C7" stroke="#D97706" stroke-width="2"/><rect x="1006" y="590" width="6" height="39" rx="3" fill="#D97706"/><text x="1123.0" y="609" text-anchor="middle" font-family="Segoe UI,Arial,sans-serif" font-size="10" font-weight="700" fill="#78350F">Geo Intelligence</text><text x="1123.0" y="626" text-anchor="middle" font-family="Segoe UI,Arial,sans-serif" font-size="9.5" font-weight="500" fill="#78350F">Maps · Geolocation</text><rect x="1268" y="318" width="312" height="332" rx="10" fill="#F8FAFC" stroke="#CBD5E1" stroke-width="1"/><text x="1284" y="341" text-anchor="start" font-family="Segoe UI,Arial,sans-serif" font-size="12" font-weight="700" fill="#334155">ENTERPRISE CONTROLS</text><text x="1564" y="341" text-anchor="end" font-family="Segoe UI,Arial,sans-serif" font-size="10" font-weight="500" fill="#64748B">Compliance &amp; Extensions</text><rect x="1282" y="354" width="132" height="34" rx="8" fill="#FEF3C7" stroke="#D97706" stroke-width="2"/><rect x="1282" y="354" width="6" height="34" rx="3" fill="#D97706"/><text x="1351.0" y="373" text-anchor="middle" font-family="Segoe UI,Arial,sans-serif" font-size="8.6" font-weight="700" fill="#78350F">115-ФЗ / Regulators</text><rect x="1424" y="354" width="132" height="34" rx="8" fill="#FEF3C7" stroke="#D97706" stroke-width="2"/><rect x="1424" y="354" width="6" height="34" rx="3" fill="#D97706"/><text x="1493.0" y="373" text-anchor="middle" font-family="Segoe UI,Arial,sans-serif" font-size="8.6" font-weight="700" fill="#78350F">Travel Rule / FATF</text><rect x="1282" y="396" width="132" height="34" rx="8" fill="#D1FAE5" stroke="#059669" stroke-width="2"/><rect x="1282" y="396" width="6" height="34" rx="3" fill="#059669"/><text x="1351.0" y="415" text-anchor="middle" font-family="Segoe UI,Arial,sans-serif" font-size="8.6" font-weight="700" fill="#064E3B">AML / CFT Rules</text><rect x="1424" y="396" width="132" height="34" rx="8" fill="#FEE2E2" stroke="#EF4444" stroke-width="2"/><rect x="1424" y="396" width="6" height="34" rx="3" fill="#EF4444"/><text x="1493.0" y="415" text-anchor="middle" font-family="Segoe UI,Arial,sans-serif" font-size="8.6" font-weight="700" fill="#7F1D1D">Chain of Custody</text><rect x="1282" y="438" width="132" height="34" rx="8" fill="#FEF3C7" stroke="#D97706" stroke-width="2"/><rect x="1282" y="438" width="6" height="34" rx="3" fill="#D97706"/><text x="1351.0" y="457" text-anchor="middle" font-family="Segoe UI,Arial,sans-serif" font-size="8.6" font-weight="700" fill="#78350F">SIEM / SOAR</text><rect x="1424" y="438" width="132" height="34" rx="8" fill="#D1FAE5" stroke="#059669" stroke-width="2"/><rect x="1424" y="438" width="6" height="34" rx="3" fill="#059669"/><text x="1493.0" y="457" text-anchor="middle" font-family="Segoe UI,Arial,sans-serif" font-size="8.6" font-weight="700" fill="#064E3B">RBAC / ABAC</text><rect x="1282" y="480" width="132" height="34" rx="8" fill="#D1FAE5" stroke="#059669" stroke-width="2"/><rect x="1282" y="480" width="6" height="34" rx="3" fill="#059669"/><text x="1351.0" y="499" text-anchor="middle" font-family="Segoe UI,Arial,sans-serif" font-size="8.6" font-weight="700" fill="#064E3B">Encryption</text><rect x="1424" y="480" width="132" height="34" rx="8" fill="#FEE2E2" stroke="#EF4444" stroke-width="2"/><rect x="1424" y="480" width="6" height="34" rx="3" fill="#EF4444"/><text x="1493.0" y="499" text-anchor="middle" font-family="Segoe UI,Arial,sans-serif" font-size="8.6" font-weight="700" fill="#7F1D1D">Audit Logs</text><rect x="1282" y="522" width="132" height="34" rx="8" fill="#D1FAE5" stroke="#059669" stroke-width="2"/><rect x="1282" y="522" width="6" height="34" rx="3" fill="#059669"/><text x="1351.0" y="541" text-anchor="middle" font-family="Segoe UI,Arial,sans-serif" font-size="8.6" font-weight="700" fill="#064E3B">REST / GraphQL / gRPC</text><rect x="1424" y="522" width="132" height="34" rx="8" fill="#D1FAE5" stroke="#059669" stroke-width="2"/><rect x="1424" y="522" width="6" height="34" rx="3" fill="#059669"/><text x="1493.0" y="541" text-anchor="middle" font-family="Segoe UI,Arial,sans-serif" font-size="8.6" font-weight="700" fill="#064E3B">Webhooks / SDK</text><rect x="1282" y="564" width="132" height="34" rx="8" fill="#D1FAE5" stroke="#059669" stroke-width="2"/><rect x="1282" y="564" width="6" height="34" rx="3" fill="#059669"/><text x="1351.0" y="583" text-anchor="middle" font-family="Segoe UI,Arial,sans-serif" font-size="8.6" font-weight="700" fill="#064E3B">Plugin Architecture</text><rect x="1424" y="564" width="132" height="34" rx="8" fill="#FEE2E2" stroke="#EF4444" stroke-width="2"/><rect x="1424" y="564" width="6" height="34" rx="3" fill="#EF4444"/><text x="1493.0" y="583" text-anchor="middle" font-family="Segoe UI,Arial,sans-serif" font-size="8.6" font-weight="700" fill="#7F1D1D">Marketplace</text><rect x="1282" y="606" width="132" height="34" rx="8" fill="#FEF3C7" stroke="#D97706" stroke-width="2"/><rect x="1282" y="606" width="6" height="34" rx="3" fill="#D97706"/><text x="1351.0" y="625" text-anchor="middle" font-family="Segoe UI,Arial,sans-serif" font-size="8.6" font-weight="700" fill="#78350F">External BI / DWH / CRM</text><rect x="20" y="666" width="1560" height="98" rx="10" fill="#F8FAFC" stroke="#CBD5E1" stroke-width="1"/><text x="36" y="689" text-anchor="start" font-family="Segoe UI,Arial,sans-serif" font-size="12" font-weight="700" fill="#334155">КЛЮЧЕВЫЕ СЕРВИСЫ ПЛАТФОРМЫ</text><text x="1564" y="689" text-anchor="end" font-family="Segoe UI,Arial,sans-serif" font-size="10" font-weight="500" fill="#64748B">Key Platform Services</text><rect x="36" y="706" width="142" height="43" rx="8" fill="#D1FAE5" stroke="#059669" stroke-width="2"/><rect x="36" y="706" width="6" height="43" rx="3" fill="#059669"/><text x="110.0" y="725" text-anchor="middle" font-family="Segoe UI,Arial,sans-serif" font-size="10" font-weight="700" fill="#064E3B">Investigation</text><rect x="190" y="706" width="142" height="43" rx="8" fill="#D1FAE5" stroke="#059669" stroke-width="2"/><rect x="190" y="706" width="6" height="43" rx="3" fill="#059669"/><text x="264.0" y="725" text-anchor="middle" font-family="Segoe UI,Arial,sans-serif" font-size="10" font-weight="700" fill="#064E3B">Knowledge Graph</text><rect x="344" y="706" width="142" height="43" rx="8" fill="#D1FAE5" stroke="#059669" stroke-width="2"/><rect x="344" y="706" width="6" height="43" rx="3" fill="#059669"/><text x="418.0" y="725" text-anchor="middle" font-family="Segoe UI,Arial,sans-serif" font-size="10" font-weight="700" fill="#064E3B">Entity Resolution</text><rect x="498" y="706" width="142" height="43" rx="8" fill="#D1FAE5" stroke="#059669" stroke-width="2"/><rect x="498" y="706" width="6" height="43" rx="3" fill="#059669"/><text x="572.0" y="725" text-anchor="middle" font-family="Segoe UI,Arial,sans-serif" font-size="10" font-weight="700" fill="#064E3B">Timeline</text><rect x="652" y="706" width="142" height="43" rx="8" fill="#FEE2E2" stroke="#EF4444" stroke-width="2"/><rect x="652" y="706" width="6" height="43" rx="3" fill="#EF4444"/><text x="726.0" y="725" text-anchor="middle" font-family="Segoe UI,Arial,sans-serif" font-size="10" font-weight="700" fill="#7F1D1D">Evidence</text><rect x="806" y="706" width="142" height="43" rx="8" fill="#D1FAE5" stroke="#059669" stroke-width="2"/><rect x="806" y="706" width="6" height="43" rx="3" fill="#059669"/><text x="880.0" y="725" text-anchor="middle" font-family="Segoe UI,Arial,sans-serif" font-size="10" font-weight="700" fill="#064E3B">Risk Engine</text><rect x="960" y="706" width="142" height="43" rx="8" fill="#FEE2E2" stroke="#EF4444" stroke-width="2"/><rect x="960" y="706" width="6" height="43" rx="3" fill="#EF4444"/><text x="1034.0" y="725" text-anchor="middle" font-family="Segoe UI,Arial,sans-serif" font-size="10" font-weight="700" fill="#7F1D1D">AI &amp; NLP</text><rect x="1114" y="706" width="142" height="43" rx="8" fill="#D1FAE5" stroke="#059669" stroke-width="2"/><rect x="1114" y="706" width="6" height="43" rx="3" fill="#059669"/><text x="1188.0" y="725" text-anchor="middle" font-family="Segoe UI,Arial,sans-serif" font-size="10" font-weight="700" fill="#064E3B">Report Engine</text><rect x="1268" y="706" width="142" height="43" rx="8" fill="#D1FAE5" stroke="#059669" stroke-width="2"/><rect x="1268" y="706" width="6" height="43" rx="3" fill="#059669"/><text x="1342.0" y="725" text-anchor="middle" font-family="Segoe UI,Arial,sans-serif" font-size="10" font-weight="700" fill="#064E3B">Notifications</text><rect x="1422" y="706" width="142" height="43" rx="8" fill="#FEE2E2" stroke="#EF4444" stroke-width="2"/><rect x="1422" y="706" width="6" height="43" rx="3" fill="#EF4444"/><text x="1496.0" y="725" text-anchor="middle" font-family="Segoe UI,Arial,sans-serif" font-size="10" font-weight="700" fill="#7F1D1D">Audit &amp; Logging</text><path d="M800 650 L800 666" fill="none" stroke="#64748B" stroke-width="1.6" marker-end="url(#arrow)"/><path d="M800 764 L800 777" fill="none" stroke="#64748B" stroke-width="1.6" marker-end="url(#arrow)"/><rect x="20" y="777" width="1560" height="78" rx="10" fill="#F8FAFC" stroke="#CBD5E1" stroke-width="1"/><text x="36" y="800" text-anchor="start" font-family="Segoe UI,Arial,sans-serif" font-size="12" font-weight="700" fill="#334155">ХРАНИЛИЩА ДАННЫХ И СООБЩЕНИЙ</text><text x="1564" y="800" text-anchor="end" font-family="Segoe UI,Arial,sans-serif" font-size="10" font-weight="500" fill="#64748B">Data Platform</text><rect x="36" y="808" width="205" height="36" rx="8" fill="#D1FAE5" stroke="#059669" stroke-width="2"/><rect x="36" y="808" width="6" height="36" rx="3" fill="#059669"/><text x="141.5" y="827" text-anchor="middle" font-family="Segoe UI,Arial,sans-serif" font-size="10" font-weight="700" fill="#064E3B">PostgreSQL</text><rect x="256" y="808" width="205" height="36" rx="8" fill="#D1FAE5" stroke="#059669" stroke-width="2"/><rect x="256" y="808" width="6" height="36" rx="3" fill="#059669"/><text x="361.5" y="827" text-anchor="middle" font-family="Segoe UI,Arial,sans-serif" font-size="10" font-weight="700" fill="#064E3B">Neo4j Cluster</text><rect x="476" y="808" width="205" height="36" rx="8" fill="#D1FAE5" stroke="#059669" stroke-width="2"/><rect x="476" y="808" width="6" height="36" rx="3" fill="#059669"/><text x="581.5" y="827" text-anchor="middle" font-family="Segoe UI,Arial,sans-serif" font-size="10" font-weight="700" fill="#064E3B">OpenSearch</text><rect x="696" y="808" width="205" height="36" rx="8" fill="#D1FAE5" stroke="#059669" stroke-width="2"/><rect x="696" y="808" width="6" height="36" rx="3" fill="#059669"/><text x="801.5" y="827" text-anchor="middle" font-family="Segoe UI,Arial,sans-serif" font-size="10" font-weight="700" fill="#064E3B">Redis</text><rect x="916" y="808" width="205" height="36" rx="8" fill="#FEF3C7" stroke="#D97706" stroke-width="2"/><rect x="916" y="808" width="6" height="36" rx="3" fill="#D97706"/><text x="1021.5" y="827" text-anchor="middle" font-family="Segoe UI,Arial,sans-serif" font-size="10" font-weight="700" fill="#78350F">Object Storage</text><rect x="1136" y="808" width="205" height="36" rx="8" fill="#D1FAE5" stroke="#059669" stroke-width="2"/><rect x="1136" y="808" width="6" height="36" rx="3" fill="#059669"/><text x="1241.5" y="827" text-anchor="middle" font-family="Segoe UI,Arial,sans-serif" font-size="10" font-weight="700" fill="#064E3B">Kafka / RabbitMQ</text><rect x="1356" y="808" width="205" height="36" rx="8" fill="#FEE2E2" stroke="#EF4444" stroke-width="2"/><rect x="1356" y="808" width="6" height="36" rx="3" fill="#EF4444"/><text x="1461.5" y="827" text-anchor="middle" font-family="Segoe UI,Arial,sans-serif" font-size="10" font-weight="700" fill="#7F1D1D">Data Lake / Archive</text><path d="M800 855 L800 866" fill="none" stroke="#64748B" stroke-width="1.6" marker-end="url(#arrow)"/><rect x="20" y="866" width="1560" height="68" rx="10" fill="#F8FAFC" stroke="#CBD5E1" stroke-width="1"/><text x="36" y="889" text-anchor="start" font-family="Segoe UI,Arial,sans-serif" font-size="12" font-weight="700" fill="#334155">ИНФРАСТРУКТУРА И ЭКСПЛУАТАЦИЯ</text><text x="1564" y="889" text-anchor="end" font-family="Segoe UI,Arial,sans-serif" font-size="10" font-weight="500" fill="#64748B">Infrastructure &amp; Operations</text><rect x="34" y="896" width="130" height="29" rx="8" fill="#D1FAE5" stroke="#059669" stroke-width="2"/><rect x="34" y="896" width="6" height="29" rx="3" fill="#059669"/><text x="102.0" y="915" text-anchor="middle" font-family="Segoe UI,Arial,sans-serif" font-size="9.2" font-weight="700" fill="#064E3B">Docker</text><rect x="175" y="896" width="130" height="29" rx="8" fill="#FEE2E2" stroke="#EF4444" stroke-width="2"/><rect x="175" y="896" width="6" height="29" rx="3" fill="#EF4444"/><text x="243.0" y="915" text-anchor="middle" font-family="Segoe UI,Arial,sans-serif" font-size="9.2" font-weight="700" fill="#7F1D1D">Kubernetes</text><rect x="316" y="896" width="130" height="29" rx="8" fill="#FEE2E2" stroke="#EF4444" stroke-width="2"/><rect x="316" y="896" width="6" height="29" rx="3" fill="#EF4444"/><text x="384.0" y="915" text-anchor="middle" font-family="Segoe UI,Arial,sans-serif" font-size="9.2" font-weight="700" fill="#7F1D1D">Helm</text><rect x="457" y="896" width="130" height="29" rx="8" fill="#FEE2E2" stroke="#EF4444" stroke-width="2"/><rect x="457" y="896" width="6" height="29" rx="3" fill="#EF4444"/><text x="525.0" y="915" text-anchor="middle" font-family="Segoe UI,Arial,sans-serif" font-size="9.2" font-weight="700" fill="#7F1D1D">Terraform</text><rect x="598" y="896" width="130" height="29" rx="8" fill="#FEE2E2" stroke="#EF4444" stroke-width="2"/><rect x="598" y="896" width="6" height="29" rx="3" fill="#EF4444"/><text x="666.0" y="915" text-anchor="middle" font-family="Segoe UI,Arial,sans-serif" font-size="9.2" font-weight="700" fill="#7F1D1D">GitOps</text><rect x="739" y="896" width="130" height="29" rx="8" fill="#D1FAE5" stroke="#059669" stroke-width="2"/><rect x="739" y="896" width="6" height="29" rx="3" fill="#059669"/><text x="807.0" y="915" text-anchor="middle" font-family="Segoe UI,Arial,sans-serif" font-size="9.2" font-weight="700" fill="#064E3B">CI/CD</text><rect x="880" y="896" width="130" height="29" rx="8" fill="#FEE2E2" stroke="#EF4444" stroke-width="2"/><rect x="880" y="896" width="6" height="29" rx="3" fill="#EF4444"/><text x="948.0" y="915" text-anchor="middle" font-family="Segoe UI,Arial,sans-serif" font-size="9.2" font-weight="700" fill="#7F1D1D">Monitoring</text><rect x="1021" y="896" width="130" height="29" rx="8" fill="#FEE2E2" stroke="#EF4444" stroke-width="2"/><rect x="1021" y="896" width="6" height="29" rx="3" fill="#EF4444"/><text x="1089.0" y="915" text-anchor="middle" font-family="Segoe UI,Arial,sans-serif" font-size="9.2" font-weight="700" fill="#7F1D1D">Logs</text><rect x="1162" y="896" width="130" height="29" rx="8" fill="#FEE2E2" stroke="#EF4444" stroke-width="2"/><rect x="1162" y="896" width="6" height="29" rx="3" fill="#EF4444"/><text x="1230.0" y="915" text-anchor="middle" font-family="Segoe UI,Arial,sans-serif" font-size="9.2" font-weight="700" fill="#7F1D1D">Tracing</text><rect x="1303" y="896" width="130" height="29" rx="8" fill="#FEE2E2" stroke="#EF4444" stroke-width="2"/><rect x="1303" y="896" width="6" height="29" rx="3" fill="#EF4444"/><text x="1371.0" y="915" text-anchor="middle" font-family="Segoe UI,Arial,sans-serif" font-size="9.2" font-weight="700" fill="#7F1D1D">Backup &amp; DR</text><rect x="1444" y="896" width="130" height="29" rx="8" fill="#FEF3C7" stroke="#D97706" stroke-width="2"/><rect x="1444" y="896" width="6" height="29" rx="3" fill="#D97706"/><text x="1512.0" y="915" text-anchor="middle" font-family="Segoe UI,Arial,sans-serif" font-size="9.2" font-weight="700" fill="#78350F">Vault / KMS</text><rect x="38" y="959" width="20" height="20" rx="4" fill="#059669"/><text x="68" y="969" text-anchor="start" font-family="Segoe UI,Arial,sans-serif" font-size="11" font-weight="750" fill="#064E3B">PRODUCTION READY</text><text x="68" y="984" text-anchor="start" font-family="Segoe UI,Arial,sans-serif" font-size="9.5" font-weight="500" fill="#64748B">реализовано и работает</text><rect x="558" y="959" width="20" height="20" rx="4" fill="#D97706"/><text x="588" y="969" text-anchor="start" font-family="Segoe UI,Arial,sans-serif" font-size="11" font-weight="750" fill="#78350F">INTEGRATION READY</text><text x="588" y="984" text-anchor="start" font-family="Segoe UI,Arial,sans-serif" font-size="9.5" font-weight="500" fill="#64748B">готово, ожидает внешних интеграций</text><rect x="1078" y="959" width="20" height="20" rx="4" fill="#EF4444"/><text x="1108" y="969" text-anchor="start" font-family="Segoe UI,Arial,sans-serif" font-size="11" font-weight="750" fill="#7F1D1D">ENTERPRISE HARDENING</text><text x="1108" y="984" text-anchor="start" font-family="Segoe UI,Arial,sans-serif" font-size="9.5" font-weight="500" fill="#64748B">реализовано, требуется промышленное усиление</text></svg>